HIERARCHY
ROOT Hips
{
	OFFSET -0.001795 -0.223333 0.028219
	CHANNELS 6 Xposition Yposition Zposition Zrotation Yrotation Xrotation
	JOINT LeftUpLeg
	{
		OFFSET 0.069520 -0.091406 -0.006815
		CHANNELS 3 Zrotation Yrotation Xrotation
		JOINT LeftLeg
		{
			OFFSET 0.034277 -0.375199 -0.004496
			CHANNELS 3 Zrotation Yrotation Xrotation
			JOINT LeftFoot
			{
				OFFSET -0.013596 -0.397961 -0.043693
				CHANNELS 3 Zrotation Yrotation Xrotation
				JOINT LeftToe
				{
					OFFSET 0.026358 -0.055791 0.119288
					CHANNELS 3 Zrotation Yrotation Xrotation
					End Site
					{
						OFFSET 0.000000 0.000000 0.000000
					}
				}
			}
		}
	}
	JOINT RightUpLeg
	{
		OFFSET -0.067670 -0.090522 -0.004320
		CHANNELS 3 Zrotation Yrotation Xrotation
		JOINT RightLeg
		{
			OFFSET -0.038290 -0.382569 -0.008850
			CHANNELS 3 Zrotation Yrotation Xrotation
			JOINT RightFoot
			{
				OFFSET 0.015774 -0.398415 -0.042312
				CHANNELS 3 Zrotation Yrotation Xrotation
				JOINT RightToe
				{
					OFFSET -0.025372 -0.048144 0.123348
					CHANNELS 3 Zrotation Yrotation Xrotation
					End Site
					{
						OFFSET 0.000000 0.000000 0.000000
					}
				}
			}
		}
	}
	JOINT Spine
	{
		OFFSET -0.002533 0.108963 -0.026696
		CHANNELS 3 Zrotation Yrotation Xrotation
		JOINT Spine1
		{
			OFFSET 0.005487 0.135180 0.001092
			CHANNELS 3 Zrotation Yrotation Xrotation
			JOINT Spine2
			{
				OFFSET 0.001457 0.052922 0.025425
				CHANNELS 3 Zrotation Yrotation Xrotation
				JOINT Neck
				{
					OFFSET -0.002778 0.213870 -0.042857
					CHANNELS 3 Zrotation Yrotation Xrotation
					JOINT Head
					{
						OFFSET 0.005152 0.064970 0.051349
						CHANNELS 3 Zrotation Yrotation Xrotation
						End Site
						{
							OFFSET 0.000000 0.000000 0.000000
						}
					}
				}
				JOINT LeftShoulder
				{
					OFFSET 0.078845 0.121749 -0.034090
					CHANNELS 3 Zrotation Yrotation Xrotation
					JOINT LeftArm
					{
						OFFSET 0.090977 0.030469 -0.008868
						CHANNELS 3 Zrotation Yrotation Xrotation
						JOINT LeftForeArm
						{
							OFFSET 0.259612 -0.012772 -0.027456
							CHANNELS 3 Zrotation Yrotation Xrotation
							JOINT LeftHand
							{
								OFFSET 0.249234 0.008986 -0.001171
								CHANNELS 3 Zrotation Yrotation Xrotation
								End Site
								{
									OFFSET 0.000000 0.000000 0.000000
								}
							}
						}
					}
				}
				JOINT RightShoulder
				{
					OFFSET -0.081759 0.118833 -0.038615
					CHANNELS 3 Zrotation Yrotation Xrotation
					JOINT RightArm
					{
						OFFSET -0.096012 0.032551 -0.009143
						CHANNELS 3 Zrotation Yrotation Xrotation
						JOINT RightForeArm
						{
							OFFSET -0.253742 -0.013329 -0.021401
							CHANNELS 3 Zrotation Yrotation Xrotation
							JOINT RightHand
							{
								OFFSET -0.255298 0.007772 -0.005559
								CHANNELS 3 Zrotation Yrotation Xrotation
								End Site
								{
									OFFSET 0.000000 0.000000 0.000000
								}
							}
						}
					}
				}
			}
		}
	}
}
MOTION
Frames: 10
Frame Time: 0.050000
0.000000 0.976407 0.000000 0.089094 0.185110 -1.834646 -1.505647 0.699297 6.569352 -0.125925 0.104344 -2.739893 -2.222219 3.414637 18.699698 0.000000 0.000000 0.000000 1.907033 -0.721815 5.836856 -0.133406 -0.091875 -2.609460 1.183804 -5.240443 19.547984 0.000000 0.000000 0.000000 5.176076 -0.832198 9.490800 -7.595454 2.369832 -26.529308 0.859820 2.075353 26.745771 7.334982 -4.726569 -12.374313 0.000000 0.000000 0.000000 -26.559416 -7.512999 2.453089 -47.624819 -0.670187 -7.685701 -6.008373 -27.018851 2.697178 0.000000 0.000000 0.000000 33.855193 -1.994975 -2.682499 48.935716 3.337872 -6.318638 6.007238 28.222729 2.916716 0.000000 0.000000 0.000000
0.000447 0.974822 0.000097 0.207050 0.849644 -1.669105 -1.345829 0.663574 6.366416 -0.752270 0.158444 -2.781635 -2.139825 3.512445 18.288950 0.000000 0.000000 0.000000 1.819410 -0.669290 5.413728 0.088852 -0.101066 -2.367700 0.374733 -6.470710 19.671399 0.000000 0.000000 0.000000 5.338450 -0.765592 8.522662 -8.625065 2.652676 -25.868756 1.207297 1.465314 26.652541 7.627412 -4.980237 -12.435590 0.000000 0.000000 0.000000 -26.168347 -7.539081 2.554389 -48.180041 -0.766149 -7.767889 -4.878773 -27.470218 2.495048 0.000000 0.000000 0.000000 34.371176 -2.622605 -3.323698 49.380432 2.609085 -6.588131 6.099188 29.013274 3.038920 0.000000 0.000000 0.000000
0.000853 0.974694 0.000002 0.626873 1.390893 -1.550158 -1.505793 0.627024 5.928542 -1.067446 0.161459 -1.862864 -2.666787 2.469548 17.281737 0.000000 0.000000 0.000000 1.473152 -0.681272 5.698201 -0.283440 -0.108711 -3.332290 0.445278 -6.478325 20.519588 0.000000 0.000000 0.000000 5.212415 -0.707893 7.959392 -9.628737 2.871455 -26.214747 1.857197 0.723430 27.216834 6.539268 -4.243105 -12.236613 0.000000 0.000000 0.000000 -26.276683 -7.652652 2.795166 -46.990740 -0.924064 -7.633490 -6.230496 -27.325209 2.804985 0.000000 0.000000 0.000000 34.420570 -2.800152 -3.616905 48.586233 2.032119 -6.736872 6.483995 28.847139 3.084232 0.000000 0.000000 0.000000
0.001203 0.975689 -0.000215 0.744623 1.952850 -1.845287 -1.832061 0.682658 6.308675 -0.805443 0.139005 -1.937109 -2.689751 2.504511 17.213678 0.000000 0.000000 0.000000 1.310028 -0.742970 6.308221 0.162678 -0.151645 -3.516178 -0.255390 -7.419157 20.180371 0.000000 0.000000 0.000000 5.256453 -0.711709 8.003609 -10.000055 2.930325 -26.808833 2.085437 0.588575 28.191396 6.556327 -4.260047 -12.285658 0.000000 0.000000 0.000000 -26.236972 -7.672048 2.764836 -47.855306 -0.868917 -7.877054 -4.773909 -28.204833 2.568152 0.000000 0.000000 0.000000 34.900935 -2.743785 -3.448939 48.185499 2.561728 -6.648001 6.123767 28.112010 2.929448 0.000000 0.000000 0.000000
0.001588 0.976361 -0.000596 0.687581 2.701006 -2.204033 -1.613647 0.688774 6.584715 -0.986985 0.152808 -1.886074 -3.037501 2.167817 17.365297 0.000000 0.000000 0.000000 1.430255 -0.809493 6.759002 0.002606 -0.147732 -3.732806 -0.377296 -7.649522 20.935567 0.000000 0.000000 0.000000 4.988011 -0.724722 8.410446 -9.084928 2.822684 -25.723655 1.565079 1.098278 26.525514 6.354627 -4.143286 -10.803030 0.000000 0.000000 0.000000 -26.340364 -7.623003 2.278379 -47.482344 -0.289787 -7.740838 -5.667631 -28.032071 2.693306 0.000000 0.000000 0.000000 35.399339 -2.973499 -3.319571 47.637897 2.332899 -6.609481 5.605897 27.491407 2.739259 0.000000 0.000000 0.000000
0.001969 0.976944 -0.001036 0.566501 3.222463 -2.475840 -1.557866 0.690890 6.703182 -0.867895 0.138230 -1.757252 -3.154646 2.142711 17.519888 0.000000 0.000000 0.000000 1.519693 -0.844884 6.967939 0.122755 -0.152664 -3.615920 -0.612034 -7.998835 21.287150 0.000000 0.000000 0.000000 4.865115 -0.776497 9.126207 -8.937430 2.770531 -26.290502 1.723618 1.176593 26.472754 6.581483 -4.269392 -10.883766 0.000000 0.000000 0.000000 -26.859303 -7.688435 2.137014 -47.221308 -0.317032 -7.636648 -4.849906 -27.805537 2.448110 0.000000 0.000000 0.000000 35.454526 -2.569523 -2.824635 47.620701 2.513877 -6.598922 4.438612 26.405628 2.359361 0.000000 0.000000 0.000000
0.002295 0.976821 -0.001392 0.585083 3.569123 -2.792947 -1.419987 0.687766 6.813552 -1.179377 0.164282 -1.719433 -3.209586 2.354032 18.131242 0.000000 0.000000 0.000000 1.651184 -0.903152 7.346104 0.059851 -0.144205 -3.532833 -1.075243 -8.595974 20.922612 0.000000 0.000000 0.000000 4.622375 -0.789575 9.550373 -8.485857 2.726572 -25.694474 1.436587 1.428821 25.520506 6.821002 -4.451362 -10.455944 0.000000 0.000000 0.000000 -27.166057 -7.738796 1.927475 -47.175071 0.224102 -7.664920 -4.676901 -27.678997 2.357415 0.000000 0.000000 0.000000 35.842123 -2.128500 -2.367382 47.468466 2.692574 -6.475190 3.768332 25.816276 2.146514 0.000000 0.000000 0.000000
0.002606 0.977003 -0.001559 0.463127 4.088562 -3.002687 -1.304559 0.677301 6.852281 -1.068500 0.153198 -1.702628 -3.483401 2.226288 18.605088 0.000000 0.000000 0.000000 1.726956 -0.920408 7.403686 -0.009976 -0.126679 -3.245153 -0.964300 -8.379821 21.218908 0.000000 0.000000 0.000000 4.412353 -0.854151 10.497949 -8.253865 2.662533 -26.126528 1.528698 1.592189 25.277485 7.252234 -4.824179 -10.044746 0.000000 0.000000 0.000000 -27.542923 -8.015951 1.878376 -47.052395 0.875706 -7.794837 -4.591415 -27.903479 2.327593 0.000000 0.000000 0.000000 35.932143 -1.729107 -1.856566 47.335212 3.293890 -6.285778 3.277428 25.161117 1.981186 0.000000 0.000000 0.000000
0.002975 0.977154 -0.001740 0.532371 4.333135 -2.953064 -1.292596 0.648673 6.575362 -1.152346 0.154494 -1.476528 -3.736350 2.024701 18.929638 0.000000 0.000000 0.000000 1.493188 -0.898462 7.354517 0.041324 -0.133786 -3.312459 -0.702610 -7.989366 21.569301 0.000000 0.000000 0.000000 4.220334 -0.847951 10.617049 -8.182889 2.673937 -25.780140 1.666174 1.774356 24.954370 7.082526 -4.696188 -9.735092 0.000000 0.000000 0.000000 -28.009473 -8.315961 1.905328 -46.974626 1.192230 -7.819397 -3.906786 -27.653875 2.120181 0.000000 0.000000 0.000000 36.177636 -1.086233 -1.245676 46.929189 3.951840 -6.030139 2.625990 24.553107 1.784333 0.000000 0.000000 0.000000
0.003395 0.977352 -0.002150 0.482356 4.783225 -2.908506 -1.043770 0.606502 6.345196 -1.281836 0.162040 -1.355959 -4.303245 1.401173 19.226838 0.000000 0.000000 0.000000 1.408029 -0.878582 7.213472 0.167948 -0.137579 -3.133014 -0.644934 -7.837702 21.720851 0.000000 0.000000 0.000000 4.276274 -0.899647 11.106731 -8.415006 2.719392 -26.111497 1.878398 1.864330 24.731759 7.576102 -5.030487 -9.887328 0.000000 0.000000 0.000000 -27.808184 -8.556521 1.923729 -47.627249 1.947507 -8.158425 -3.423661 -27.638032 1.989920 0.000000 0.000000 0.000000 35.977236 -0.780664 -0.843085 47.114951 4.587728 -5.838106 2.256721 23.880036 1.656350 0.000000 0.000000 0.000000
